<?xml version="1.0" encoding="UTF-8" standalone="no"?>
<svg
   height="24px"
   viewBox="0 0 24 24"
   width="24px"
   fill="#000000"
   version="1.1"
   id="svg152"
   sodipodi:docname="placeholder.svg"
   inkscape:version="1.2.2 (732a01da63, 2022-12-09, custom)"
   inkscape:export-filename="../1caed7f8/placeholder.png"
   inkscape:export-xdpi="8192"
   inkscape:export-ydpi="8192"
   xmlns:inkscape="http://www.inkscape.org/namespaces/inkscape"
   xmlns:sodipodi="http://sodipodi.sourceforge.net/DTD/sodipodi-0.dtd"
   xmlns:xlink="http://www.w3.org/1999/xlink"
   xmlns="http://www.w3.org/2000/svg"
   xmlns:svg="http://www.w3.org/2000/svg">
  <defs
     id="defs156">
    <linearGradient
       inkscape:collect="always"
       id="linearGradient1113">
      <stop
         style="stop-color:#56106f;stop-opacity:1;"
         offset="0"
         id="stop1109" />
      <stop
         style="stop-color:#110614;stop-opacity:1;"
         offset="1"
         id="stop1111" />
    </linearGradient>
    <radialGradient
       inkscape:collect="always"
       xlink:href="#linearGradient1113"
       id="radialGradient1181"
       cx="1.6033211"
       cy="1.9765913"
       fx="1.6033211"
       fy="1.9765913"
       r="12"
       gradientUnits="userSpaceOnUse"
       gradientTransform="matrix(2.6651833,0.04906064,-0.04275264,2.3225059,-2.5853188,-2.6927137)" />
  </defs>
  <sodipodi:namedview
     id="namedview154"
     pagecolor="#505050"
     bordercolor="#eeeeee"
     borderopacity="1"
     inkscape:showpageshadow="0"
     inkscape:pageopacity="0"
     inkscape:pagecheckerboard="0"
     inkscape:deskcolor="#505050"
     showgrid="false"
     inkscape:zoom="16.9375"
     inkscape:cx="7.8228782"
     inkscape:cy="14.730627"
     inkscape:window-width="1920"
     inkscape:window-height="1016"
     inkscape:window-x="0"
     inkscape:window-y="0"
     inkscape:window-maximized="1"
     inkscape:current-layer="layer2" />
  <g
     inkscape:groupmode="layer"
     id="layer1"
     inkscape:label="Layer 1">
    <rect
       style="fill:url(#radialGradient1181);stroke-width:0.961227;fill-opacity:1"
       id="rect465"
       width="24"
       height="24"
       x="0"
       y="0" />
  </g>
  <g
     inkscape:groupmode="layer"
     id="layer2"
     inkscape:label="Layer 2"
     style="display:inline">
    <path
       d="m 12,4.945572 v 8.269358 c -0.462457,-0.266502 -0.995459,-0.431105 -1.567651,-0.431105 -1.7322537,0 -3.135301,1.403048 -3.135301,3.135302 0,1.732254 1.4030473,3.135301 3.135301,3.135301 1.732254,0 3.135302,-1.403047 3.135302,-3.135301 V 8.0808733 h 3.135301 V 4.945572 Z"
       id="path150"
       style="display:inline;fill:#ecabf9;fill-opacity:0.31235614;stroke-width:0.783825" />
    <path
       d="m 12.000162,6.2567038 v 6.6993132 c -0.736533,-0.423114 -1.645446,-0.587659 -2.6092065,-0.250734 -1.049951,0.376102 -1.8570028,1.308521 -2.0450536,2.405484 -0.360431,2.146915 1.4573944,3.980411 3.5964731,3.643487 1.53575,-0.242899 2.624878,-1.653281 2.624878,-3.212537 V 7.8237947 h 1.567091 c 0.8619,0 1.56709,-0.705191 1.56709,-1.5670909 0,-0.8619 -0.70519,-1.5670909 -1.56709,-1.5670909 h -1.567091 c -0.8619,0 -1.567091,0.7051909 -1.567091,1.5670909 z"
       id="path15415"
       style="display:none;fill:#e694f8;fill-opacity:0.218045;stroke-width:0.783546" />
  </g>
</svg>
